<svg width="25" height="24" viewBox="0 0 25 24" fill="none" xmlns="http://www.w3.org/2000/svg">
<path d="M4.58994 20.6813C3.49988 20.5431 2.58263 21.4603 2.72087 22.5504C2.81428 23.293 3.41395 23.8927 4.15654 23.9861C5.2466 24.1243 6.16386 23.2071 6.02562 22.117C5.93128 21.3744 5.33253 20.7747 4.58994 20.6813Z" fill="#767879"/>
<path d="M11.1914 22.1171C11.098 21.3745 10.4974 20.7748 9.75572 20.6814C8.66566 20.5432 7.7484 21.4605 7.88664 22.5505C7.98005 23.2931 8.57972 23.8928 9.32231 23.9862C10.4114 24.1244 11.3278 23.2072 11.1914 22.1171Z" fill="#767879"/>
<path d="M24.535 0L23.4328 2.51639H21.2481L13.9128 19.8051H11.0293L19.307 0H24.535Z" fill="#767879"/>
<path d="M0 3.2926V19.8051H9.47242L10.6195 17.0057H3.2543V12.8883H12.3895L12.482 12.667L13.5534 10.1113H3.25337V6.09202H15.2385L15.2413 6.08361L15.7316 4.91135L16.4107 3.2926H0Z" fill="#767879"/>
<path d="M13.5954 16.6938H0V19.8052H13.5954V16.6938Z" fill="#767879"/>
</svg>
