<svg width="24" height="25" viewBox="0 0 24 25" fill="none" xmlns="http://www.w3.org/2000/svg">
<path d="M3 11.5H6C6.53043 11.5 7.03914 11.7107 7.41421 12.0858C7.78929 12.4609 8 12.9696 8 13.5V16.5C8 17.0304 7.78929 17.5391 7.41421 17.9142C7.03914 18.2893 6.53043 18.5 6 18.5H5C4.46957 18.5 3.96086 18.2893 3.58579 17.9142C3.21071 17.5391 3 17.0304 3 16.5V11.5ZM3 11.5C3 10.3181 3.23279 9.14778 3.68508 8.05585C4.13738 6.96392 4.80031 5.97177 5.63604 5.13604C6.47177 4.30031 7.46392 3.63738 8.55585 3.18508C9.64778 2.73279 10.8181 2.5 12 2.5C13.1819 2.5 14.3522 2.73279 15.4442 3.18508C16.5361 3.63738 17.5282 4.30031 18.364 5.13604C19.1997 5.97177 19.8626 6.96392 20.3149 8.05585C20.7672 9.14778 21 10.3181 21 11.5M21 11.5V16.5M21 11.5H18C17.4696 11.5 16.9609 11.7107 16.5858 12.0858C16.2107 12.4609 16 12.9696 16 13.5V16.5C16 17.0304 16.2107 17.5391 16.5858 17.9142C16.9609 18.2893 17.4696 18.5 18 18.5H19C19.5304 18.5 20.0391 18.2893 20.4142 17.9142C20.7893 17.5391 21 17.0304 21 16.5M21 16.5V18.5C21 19.5609 20.5786 20.5783 19.8284 21.3284C19.0783 22.0786 18.0609 22.5 17 22.5H12" stroke="#767879" stroke-width="2" stroke-linecap="round" stroke-linejoin="round"/>
</svg>
