<svg width="24" height="25" viewBox="0 0 24 25" fill="none" xmlns="http://www.w3.org/2000/svg">
<path d="M9.09 9.49999C9.3251 8.83165 9.78915 8.26809 10.4 7.90912C11.0108 7.55014 11.7289 7.41892 12.4272 7.5387C13.1255 7.65847 13.7588 8.02151 14.2151 8.56351C14.6713 9.10552 14.9211 9.79151 14.92 10.5C14.92 12.5 11.92 13.5 11.92 13.5M12 17.5H12.01M7.9 20.5C9.80858 21.479 12.0041 21.7442 14.0909 21.2478C16.1777 20.7513 18.0186 19.5258 19.2818 17.7922C20.545 16.0585 21.1474 13.9307 20.9806 11.7921C20.8137 9.6536 19.8886 7.64496 18.3718 6.12818C16.855 4.6114 14.8464 3.68624 12.7078 3.5194C10.5693 3.35257 8.44147 3.95503 6.70782 5.21823C4.97417 6.48143 3.74869 8.3223 3.25222 10.4091C2.75575 12.4959 3.02094 14.6914 4 16.6L2 22.5L7.9 20.5Z" stroke="#767879" stroke-width="2" stroke-linecap="round" stroke-linejoin="round"/>
</svg>
