<svg width="28" height="20" viewBox="0 0 28 20" fill="none" xmlns="http://www.w3.org/2000/svg">
<path d="M19.2 7.42857H21.8M19.2 12.5714H21.8M6.421 13.8571C6.68898 13.1037 7.18683 12.4512 7.84582 11.9895C8.50482 11.5279 9.29245 11.28 10.1 11.28C10.9075 11.28 11.6952 11.5279 12.3542 11.9895C13.0132 12.4512 13.511 13.1037 13.779 13.8571M12.7 8.71429C12.7 10.1344 11.5359 11.2857 10.1 11.2857C8.66406 11.2857 7.5 10.1344 7.5 8.71429C7.5 7.29412 8.66406 6.14286 10.1 6.14286C11.5359 6.14286 12.7 7.29412 12.7 8.71429ZM3.6 1H24.4C25.8359 1 27 2.15127 27 3.57143V16.4286C27 17.8487 25.8359 19 24.4 19H3.6C2.16406 19 1 17.8487 1 16.4286V3.57143C1 2.15127 2.16406 1 3.6 1Z" stroke="#767879" stroke-width="2" stroke-linecap="round" stroke-linejoin="round"/>
</svg>
