<svg width="25" height="25" viewBox="0 0 25 25" fill="none" xmlns="http://www.w3.org/2000/svg">
<path d="M20.5 3.50001V7.50001M22.5 5.50001H18.5M4.5 17.5V19.5M5.5 18.5H3.5M10.437 16C10.3477 15.6539 10.1673 15.3381 9.91462 15.0854C9.6619 14.8327 9.34607 14.6523 9 14.563L2.865 12.981C2.76033 12.9513 2.66821 12.8883 2.60261 12.8014C2.53702 12.7146 2.50153 12.6088 2.50153 12.5C2.50153 12.3912 2.53702 12.2854 2.60261 12.1986C2.66821 12.1118 2.76033 12.0487 2.865 12.019L9 10.436C9.34595 10.3468 9.66169 10.1666 9.9144 9.91404C10.1671 9.66151 10.3476 9.34589 10.437 9.00001L12.019 2.86501C12.0484 2.75992 12.1114 2.66735 12.1983 2.6014C12.2853 2.53545 12.3914 2.49976 12.5005 2.49976C12.6096 2.49976 12.7157 2.53545 12.8027 2.6014C12.8896 2.66735 12.9526 2.75992 12.982 2.86501L14.563 9.00001C14.6523 9.34608 14.8327 9.6619 15.0854 9.91462C15.3381 10.1673 15.6539 10.3477 16 10.437L22.135 12.018C22.2405 12.0471 22.3335 12.11 22.3998 12.1971C22.4661 12.2841 22.5021 12.3906 22.5021 12.5C22.5021 12.6094 22.4661 12.7159 22.3998 12.8029C22.3335 12.89 22.2405 12.9529 22.135 12.982L16 14.563C15.6539 14.6523 15.3381 14.8327 15.0854 15.0854C14.8327 15.3381 14.6523 15.6539 14.563 16L12.981 22.135C12.9516 22.2401 12.8886 22.3327 12.8017 22.3986C12.7147 22.4646 12.6086 22.5003 12.4995 22.5003C12.3904 22.5003 12.2843 22.4646 12.1973 22.3986C12.1104 22.3327 12.0474 22.2401 12.018 22.135L10.437 16Z" stroke="#461256" stroke-width="2" stroke-linecap="round" stroke-linejoin="round"/>
</svg>
