<svg width="25" height="25" viewBox="0 0 25 25" fill="none" xmlns="http://www.w3.org/2000/svg">
<g clip-path="url(#clip0_3186_5)">
<path d="M11.3 4.9H15.7C15.7 4.31652 15.4682 3.75695 15.0556 3.34437C14.6431 2.93179 14.0835 2.7 13.5 2.7C12.9165 2.7 12.3569 2.93179 11.9444 3.34437C11.5318 3.75695 11.3 4.31652 11.3 4.9ZM9.1 4.9C9.1 3.73305 9.56357 2.61389 10.3887 1.78873C11.2139 0.96357 12.333 0.5 13.5 0.5C14.667 0.5 15.7861 0.96357 16.6113 1.78873C17.4364 2.61389 17.9 3.73305 17.9 4.9H23.4C23.6917 4.9 23.9715 5.01589 24.1778 5.22218C24.3841 5.42847 24.5 5.70826 24.5 6C24.5 6.29174 24.3841 6.57153 24.1778 6.77782C23.9715 6.98411 23.6917 7.1 23.4 7.1H22.4298L21.4552 18.474C21.3615 19.5723 20.859 20.5954 20.047 21.341C19.2351 22.0865 18.1729 22.5001 17.0706 22.5H9.9294C8.8271 22.5001 7.7649 22.0865 6.95296 21.341C6.14103 20.5954 5.6385 19.5723 5.5448 18.474L4.5702 7.1H3.6C3.30826 7.1 3.02847 6.98411 2.82218 6.77782C2.61589 6.57153 2.5 6.29174 2.5 6C2.5 5.70826 2.61589 5.42847 2.82218 5.22218C3.02847 5.01589 3.30826 4.9 3.6 4.9H9.1ZM16.8 11.5C16.8 11.2083 16.6841 10.9285 16.4778 10.7222C16.2715 10.5159 15.9917 10.4 15.7 10.4C15.4083 10.4 15.1285 10.5159 14.9222 10.7222C14.7159 10.9285 14.6 11.2083 14.6 11.5V15.9C14.6 16.1917 14.7159 16.4715 14.9222 16.6778C15.1285 16.8841 15.4083 17 15.7 17C15.9917 17 16.2715 16.8841 16.4778 16.6778C16.6841 16.4715 16.8 16.1917 16.8 15.9V11.5ZM11.3 10.4C11.5917 10.4 11.8715 10.5159 12.0778 10.7222C12.2841 10.9285 12.4 11.2083 12.4 11.5V15.9C12.4 16.1917 12.2841 16.4715 12.0778 16.6778C11.8715 16.8841 11.5917 17 11.3 17C11.0083 17 10.7285 16.8841 10.5222 16.6778C10.3159 16.4715 10.2 16.1917 10.2 15.9V11.5C10.2 11.2083 10.3159 10.9285 10.5222 10.7222C10.7285 10.5159 11.0083 10.4 11.3 10.4ZM7.736 18.287C7.78286 18.8363 8.03429 19.3481 8.44049 19.7209C8.84669 20.0937 9.37806 20.3003 9.9294 20.3H17.0706C17.6216 20.2998 18.1524 20.0929 18.5581 19.7201C18.9639 19.3474 19.215 18.836 19.2618 18.287L20.221 7.1H6.779L7.736 18.287Z" fill="#767879"/>
</g>
<defs>
<clipPath id="clip0_3186_5">
<rect width="24" height="24" fill="white" transform="translate(0.5 0.5)"/>
</clipPath>
</defs>
</svg>
