<svg width="25" height="25" viewBox="0 0 25 25" fill="none" xmlns="http://www.w3.org/2000/svg">
<path d="M12.5 3.50001H5.5C4.96957 3.50001 4.46086 3.71073 4.08579 4.0858C3.71071 4.46087 3.5 4.96958 3.5 5.50001V19.5C3.5 20.0304 3.71071 20.5392 4.08579 20.9142C4.46086 21.2893 4.96957 21.5 5.5 21.5H19.5C20.0304 21.5 20.5391 21.2893 20.9142 20.9142C21.2893 20.5392 21.5 20.0304 21.5 19.5V12.5M18.875 3.12501C19.2728 2.72719 19.8124 2.50369 20.375 2.50369C20.9376 2.50369 21.4772 2.72719 21.875 3.12501C22.2728 3.52284 22.4963 4.0624 22.4963 4.62501C22.4963 5.18762 22.2728 5.72719 21.875 6.12501L12.862 15.139C12.6245 15.3763 12.3312 15.5499 12.009 15.644L9.136 16.484C9.04995 16.5091 8.95874 16.5106 8.87191 16.4884C8.78508 16.4661 8.70583 16.4209 8.64245 16.3576C8.57907 16.2942 8.53389 16.2149 8.51164 16.1281C8.4894 16.0413 8.4909 15.9501 8.516 15.864L9.356 12.991C9.45053 12.6691 9.62453 12.3761 9.862 12.139L18.875 3.12501Z" stroke="#767879" stroke-width="2" stroke-linecap="round" stroke-linejoin="round"/>
</svg>
