<svg width="41" height="40" viewBox="0 0 41 40" fill="none" xmlns="http://www.w3.org/2000/svg">
<rect x="0.333313" width="40" height="40" rx="20" fill="#FFE5FB"/>
<g clip-path="url(#clip0_1855_385)">
<mask id="mask0_1855_385" style="mask-type:luminance" maskUnits="userSpaceOnUse" x="8" y="8" width="25" height="24">
<path d="M8.33331 8H32.3333V32H8.33331V8Z" fill="white"/>
</mask>
<g mask="url(#mask0_1855_385)">
<path d="M29.8333 32H19.8333C18.4553 32 17.3333 30.878 17.3333 29.5V25.5C17.3333 25.224 17.5573 25 17.8333 25C18.1093 25 18.3333 25.224 18.3333 25.5V29.5C18.3333 30.327 19.0063 31 19.8333 31H29.8333C30.6603 31 31.3333 30.327 31.3333 29.5V19.5C31.3333 18.673 30.6603 18 29.8333 18H24.8333C24.5573 18 24.3333 17.776 24.3333 17.5C24.3333 17.224 24.5573 17 24.8333 17H29.8333C31.2113 17 32.3333 18.122 32.3333 19.5V29.5C32.3333 30.878 31.2113 32 29.8333 32Z" fill="#62096C"/>
<path d="M15.8333 23H15.3333C15.0573 23 14.8333 22.776 14.8333 22.5C14.8333 22.224 15.0573 22 15.3333 22H15.8333C16.1093 22 16.3333 22.224 16.3333 22.5C16.3333 22.776 16.1093 23 15.8333 23Z" fill="#62096C"/>
<path d="M13.3123 23H12.3013C12.0253 23 11.8013 22.776 11.8013 22.5C11.8013 22.224 12.0253 22 12.3013 22H13.3123C13.5883 22 13.8123 22.224 13.8123 22.5C13.8123 22.776 13.5883 23 13.3123 23ZM10.2873 22.924C10.2423 22.924 10.1963 22.918 10.1503 22.905C9.74531 22.79 9.37231 22.572 9.07231 22.273C8.87631 22.079 8.87531 21.762 9.07031 21.566C9.26531 21.371 9.58231 21.369 9.77731 21.564C9.95731 21.743 10.1813 21.874 10.4233 21.943C10.6893 22.018 10.8433 22.295 10.7673 22.561C10.7053 22.781 10.5043 22.924 10.2873 22.924ZM8.83331 20.557C8.55731 20.557 8.33331 20.333 8.33331 20.057V19.046C8.33331 18.77 8.55731 18.546 8.83331 18.546C9.10931 18.546 9.33331 18.77 9.33331 19.046V20.057C9.33331 20.333 9.10931 20.557 8.83331 20.557ZM8.83331 17.524C8.55731 17.524 8.33331 17.3 8.33331 17.024V16.013C8.33331 15.737 8.55731 15.513 8.83331 15.513C9.10931 15.513 9.33331 15.737 9.33331 16.013V17.024C9.33331 17.3 9.10931 17.524 8.83331 17.524ZM8.83331 14.492C8.55731 14.492 8.33331 14.268 8.33331 13.992V12.981C8.33331 12.705 8.55731 12.481 8.83331 12.481C9.10931 12.481 9.33331 12.705 9.33331 12.981V13.992C9.33331 14.268 9.10931 14.492 8.83331 14.492ZM22.8333 13.461C22.5573 13.461 22.3333 13.237 22.3333 12.961V11.95C22.3333 11.674 22.5573 11.45 22.8333 11.45C23.1093 11.45 23.3333 11.673 23.3333 11.95V12.961C23.3333 13.237 23.1093 13.461 22.8333 13.461ZM8.83331 11.459C8.55731 11.459 8.33331 11.235 8.33331 10.959V10.5C8.33331 10.27 8.36531 10.041 8.42731 9.82C8.50231 9.553 8.78031 9.396 9.04431 9.475C9.31031 9.55 9.46431 9.826 9.38931 10.092C9.35231 10.224 9.33331 10.361 9.33331 10.5V10.959C9.33331 11.235 9.10931 11.459 8.83331 11.459ZM22.7523 10.436C22.5353 10.436 22.3363 10.294 22.2723 10.076C22.2023 9.835 22.0683 9.613 21.8883 9.433C21.6923 9.239 21.6903 8.922 21.8843 8.726C22.0783 8.529 22.3953 8.528 22.5913 8.722C22.8923 9.02 23.1143 9.391 23.2323 9.795C23.3103 10.06 23.1573 10.337 22.8923 10.415C22.8453 10.43 22.7983 10.436 22.7523 10.436ZM10.2713 9.08C10.0553 9.08 9.85531 8.939 9.79131 8.721C9.71431 8.456 9.86631 8.178 10.1313 8.1C10.3583 8.034 10.5943 8 10.8333 8H11.2743C11.5503 8 11.7743 8.224 11.7743 8.5C11.7743 8.776 11.5513 9 11.2743 9H10.8333C10.6893 9 10.5483 9.02 10.4123 9.06C10.3653 9.074 10.3183 9.08 10.2713 9.08ZM20.3723 9H19.3613C19.0853 9 18.8613 8.776 18.8613 8.5C18.8613 8.224 19.0853 8 19.3613 8H20.3723C20.6483 8 20.8723 8.224 20.8723 8.5C20.8723 8.776 20.6483 9 20.3723 9ZM17.3393 9H16.3293C16.0533 9 15.8293 8.776 15.8293 8.5C15.8293 8.224 16.0523 8 16.3293 8H17.3403C17.6163 8 17.8403 8.224 17.8403 8.5C17.8403 8.776 17.6163 9 17.3393 9ZM14.3073 9H13.2963C13.0203 9 12.7963 8.776 12.7963 8.5C12.7963 8.224 13.0203 8 13.2963 8H14.3073C14.5833 8 14.8073 8.224 14.8073 8.5C14.8073 8.776 14.5833 9 14.3073 9Z" fill="#62096C"/>
<path d="M22.8333 16C22.5573 16 22.3333 15.776 22.3333 15.5V15C22.3333 14.724 22.5573 14.5 22.8333 14.5C23.1093 14.5 23.3333 14.724 23.3333 15V15.5C23.3333 15.776 23.1093 16 22.8333 16Z" fill="#62096C"/>
<path d="M20.8821 25.9999H18.8321C17.4541 25.9999 16.3321 24.8779 16.3321 23.4999V21.7069L15.8841 21.2589C15.5891 20.9649 15.4271 20.5719 15.4271 20.1549C15.4271 19.7379 15.5891 19.3459 15.8841 19.0509C16.1281 18.8069 16.4391 18.6539 16.7761 18.6079C16.7461 18.1729 16.8971 17.7279 17.2291 17.3959C17.5761 17.0489 18.0741 16.8869 18.5511 16.9539C18.608 16.6579 18.7501 16.3749 18.9791 16.1459C19.3991 15.7259 20.0511 15.5849 20.5961 15.7749C20.6691 15.5449 20.7971 15.3279 20.9791 15.1459C21.5871 14.5379 22.5781 14.5379 23.1861 15.1459L24.7361 16.6959C25.7651 17.7259 26.3321 19.0949 26.3321 20.5499C26.3321 23.5549 23.8871 25.9999 20.8821 25.9999ZM17.3321 22.7069V23.4999C17.3321 24.3269 18.0051 24.9999 18.8321 24.9999H20.8821C23.3361 24.9999 25.3321 23.0039 25.3321 20.5499C25.3321 19.3619 24.869 18.2439 24.029 17.4039L22.4791 15.8539C22.2601 15.6349 21.9051 15.6349 21.6861 15.8539C21.5801 15.9589 21.5211 16.0999 21.5211 16.2499C21.5211 16.3999 21.579 16.5409 21.685 16.6459C21.783 16.7439 21.8321 16.8719 21.8321 16.9999C21.8321 17.1279 21.7831 17.2559 21.6861 17.3539C21.4911 17.5489 21.1741 17.5489 20.9791 17.3539L20.4791 16.8539C20.2671 16.6419 19.8981 16.6419 19.6861 16.8539C19.4671 17.0729 19.4671 17.4279 19.6861 17.6469L20.1861 18.1469C20.2831 18.2439 20.3321 18.3719 20.3321 18.4999C20.3321 18.6279 20.2831 18.7559 20.1861 18.8539C19.9911 19.0489 19.6741 19.0489 19.4791 18.8539L18.7291 18.1039C18.5171 17.8919 18.1481 17.8919 17.9361 18.1039C17.7171 18.3229 17.7171 18.6779 17.9361 18.8969L19.1861 20.1469C19.2831 20.2439 19.3321 20.3719 19.3321 20.4999C19.3321 20.6279 19.2831 20.7559 19.1861 20.8539C18.9911 21.0489 18.6741 21.0489 18.4791 20.8539L17.3841 19.7589C17.1721 19.5469 16.8031 19.5469 16.5911 19.7589C16.4851 19.8649 16.4271 20.0059 16.4271 20.1549C16.4271 20.3039 16.4851 20.4459 16.5911 20.5509L19.1861 23.1459C19.2831 23.2439 19.3321 23.3719 19.3321 23.4999C19.3321 23.6279 19.2831 23.7559 19.1861 23.8539C18.9911 24.0489 18.6741 24.0489 18.4791 23.8539L17.3321 22.7069Z" fill="#62096C"/>
</g>
</g>
<defs>
<clipPath id="clip0_1855_385">
<rect width="24" height="24" fill="white" transform="translate(8.33331 8)"/>
</clipPath>
</defs>
</svg>
