<svg width="32" height="32" viewBox="0 0 32 32" fill="none" xmlns="http://www.w3.org/2000/svg">
<mask id="mask0_1339_313" style="mask-type:luminance" maskUnits="userSpaceOnUse" x="0" y="0" width="32" height="32">
<path d="M0 0H32V32H0V0Z" fill="white"/>
</mask>
<g mask="url(#mask0_1339_313)">
<path d="M28.6667 32H15.3333C13.496 32 12 30.504 12 28.6667V23.3333C12 22.9653 12.2987 22.6667 12.6667 22.6667C13.0347 22.6667 13.3333 22.9653 13.3333 23.3333V28.6667C13.3333 29.7693 14.2307 30.6667 15.3333 30.6667H28.6667C29.7693 30.6667 30.6667 29.7693 30.6667 28.6667V15.3333C30.6667 14.2307 29.7693 13.3333 28.6667 13.3333H22C21.632 13.3333 21.3333 13.0347 21.3333 12.6667C21.3333 12.2987 21.632 12 22 12H28.6667C30.504 12 32 13.496 32 15.3333V28.6667C32 30.504 30.504 32 28.6667 32Z" fill="#FFE5FB"/>
<path d="M10 20.0001H9.33335C8.96535 20.0001 8.66669 19.7014 8.66669 19.3334C8.66669 18.9654 8.96535 18.6667 9.33335 18.6667H10C10.368 18.6667 10.6667 18.9654 10.6667 19.3334C10.6667 19.7014 10.368 20.0001 10 20.0001Z" fill="#FFE5FB"/>
<path d="M6.63867 20H5.29067C4.92267 20 4.624 19.7013 4.624 19.3333C4.624 18.9653 4.92267 18.6667 5.29067 18.6667H6.63867C7.00667 18.6667 7.30533 18.9653 7.30533 19.3333C7.30533 19.7013 7.00667 20 6.63867 20ZM2.60533 19.8987C2.54533 19.8987 2.484 19.8907 2.42267 19.8733C1.88267 19.72 1.38533 19.4293 0.985333 19.0307C0.724 18.772 0.722667 18.3493 0.982667 18.088C1.24267 17.828 1.66533 17.8253 1.92533 18.0853C2.16533 18.324 2.464 18.4987 2.78667 18.5907C3.14133 18.6907 3.34667 19.06 3.24533 19.4147C3.16267 19.708 2.89467 19.8987 2.60533 19.8987ZM0.666667 16.7427C0.298667 16.7427 0 16.444 0 16.076V14.728C0 14.36 0.298667 14.0613 0.666667 14.0613C1.03467 14.0613 1.33333 14.36 1.33333 14.728V16.076C1.33333 16.444 1.03467 16.7427 0.666667 16.7427ZM0.666667 12.6987C0.298667 12.6987 0 12.4 0 12.032V10.684C0 10.316 0.298667 10.0173 0.666667 10.0173C1.03467 10.0173 1.33333 10.316 1.33333 10.684V12.032C1.33333 12.4 1.03467 12.6987 0.666667 12.6987ZM0.666667 8.656C0.298667 8.656 0 8.35733 0 7.98933V6.64133C0 6.27333 0.298667 5.97467 0.666667 5.97467C1.03467 5.97467 1.33333 6.27333 1.33333 6.64133V7.98933C1.33333 8.35733 1.03467 8.656 0.666667 8.656ZM19.3333 7.28133C18.9653 7.28133 18.6667 6.98267 18.6667 6.61467V5.26667C18.6667 4.89867 18.9653 4.6 19.3333 4.6C19.7013 4.6 20 4.89733 20 5.26667V6.61467C20 6.98267 19.7013 7.28133 19.3333 7.28133ZM0.666667 4.612C0.298667 4.612 0 4.31333 0 3.94533V3.33333C0 3.02667 0.0426667 2.72133 0.125333 2.42667C0.225333 2.07067 0.596 1.86133 0.948 1.96667C1.30267 2.06667 1.508 2.43467 1.408 2.78933C1.35867 2.96533 1.33333 3.148 1.33333 3.33333V3.94533C1.33333 4.31333 1.03467 4.612 0.666667 4.612ZM19.2253 3.248C18.936 3.248 18.6707 3.05867 18.5853 2.768C18.492 2.44667 18.3133 2.15067 18.0733 1.91067C17.812 1.652 17.8093 1.22933 18.068 0.968C18.3267 0.705333 18.7493 0.704 19.0107 0.962667C19.412 1.36 19.708 1.85467 19.8653 2.39333C19.9693 2.74667 19.7653 3.116 19.412 3.22C19.3493 3.24 19.2867 3.248 19.2253 3.248ZM2.584 1.44C2.296 1.44 2.02933 1.252 1.944 0.961333C1.84133 0.608 2.044 0.237333 2.39733 0.133333C2.7 0.0453333 3.01467 0 3.33333 0H3.92133C4.28933 0 4.588 0.298667 4.588 0.666667C4.588 1.03467 4.29067 1.33333 3.92133 1.33333H3.33333C3.14133 1.33333 2.95333 1.36 2.772 1.41333C2.70933 1.432 2.64667 1.44 2.584 1.44ZM16.052 1.33333H14.704C14.336 1.33333 14.0373 1.03467 14.0373 0.666667C14.0373 0.298667 14.336 0 14.704 0H16.052C16.42 0 16.7187 0.298667 16.7187 0.666667C16.7187 1.03467 16.42 1.33333 16.052 1.33333ZM12.008 1.33333H10.6613C10.2933 1.33333 9.99467 1.03467 9.99467 0.666667C9.99467 0.298667 10.292 0 10.6613 0H12.0093C12.3773 0 12.676 0.298667 12.676 0.666667C12.676 1.03467 12.3773 1.33333 12.008 1.33333ZM7.96533 1.33333H6.61733C6.24933 1.33333 5.95067 1.03467 5.95067 0.666667C5.95067 0.298667 6.24933 0 6.61733 0H7.96533C8.33333 0 8.632 0.298667 8.632 0.666667C8.632 1.03467 8.33333 1.33333 7.96533 1.33333Z" fill="#FFE5FB"/>
<path d="M19.3334 10.6667C18.9654 10.6667 18.6667 10.3681 18.6667 10.0001V9.33341C18.6667 8.96541 18.9654 8.66675 19.3334 8.66675C19.7014 8.66675 20 8.96541 20 9.33341V10.0001C20 10.3681 19.7014 10.6667 19.3334 10.6667Z" fill="#FFE5FB"/>
<path d="M16.7317 23.9999H13.9984C12.161 23.9999 10.665 22.5039 10.665 20.6665V18.2759L10.0676 17.6785C9.67431 17.2865 9.45831 16.7625 9.45831 16.2065C9.45831 15.6505 9.67431 15.1279 10.0676 14.7345C10.393 14.4092 10.8076 14.2052 11.257 14.1439C11.217 13.5639 11.4183 12.9706 11.861 12.5279C12.3236 12.0653 12.9876 11.8493 13.6237 11.9386C13.6996 11.5439 13.889 11.1666 14.1944 10.8613C14.7544 10.3013 15.6237 10.1133 16.3504 10.3666C16.4477 10.0599 16.6184 9.77059 16.861 9.52792C17.6717 8.71726 18.993 8.71726 19.8037 9.52792L21.8704 11.5946C23.2424 12.9679 23.9984 14.7932 23.9984 16.7332C23.9984 20.7399 20.7384 23.9999 16.7317 23.9999ZM11.9983 19.6092V20.6665C11.9983 21.7692 12.8956 22.6665 13.9984 22.6665H16.7317C20.0037 22.6665 22.665 20.0052 22.665 16.7332C22.665 15.1492 22.0476 13.6585 20.9276 12.5386L18.861 10.4719C18.569 10.1799 18.0957 10.1799 17.8037 10.4719C17.6624 10.6119 17.5837 10.7999 17.5837 10.9999C17.5837 11.1999 17.6609 11.3879 17.8022 11.5279C17.9329 11.6586 17.9984 11.8293 17.9984 11.9999C17.9984 12.1706 17.933 12.3413 17.8037 12.4719C17.5437 12.7319 17.121 12.7319 16.861 12.4719L16.1944 11.8053C15.9117 11.5226 15.4197 11.5226 15.137 11.8053C14.845 12.0973 14.845 12.5706 15.137 12.8626L15.8037 13.5292C15.933 13.6585 15.9984 13.8292 15.9984 13.9999C15.9984 14.1705 15.933 14.3412 15.8037 14.4719C15.5437 14.7319 15.121 14.7319 14.861 14.4719L13.861 13.4719C13.5784 13.1893 13.0863 13.1893 12.8036 13.4719C12.5116 13.7639 12.5116 14.2372 12.8036 14.5292L14.4704 16.1959C14.5997 16.3252 14.665 16.4959 14.665 16.6665C14.665 16.8372 14.5997 17.0079 14.4704 17.1385C14.2104 17.3985 13.7877 17.3985 13.5277 17.1385L12.0676 15.6785C11.785 15.3959 11.293 15.3959 11.0103 15.6785C10.869 15.8199 10.7916 16.0079 10.7916 16.2065C10.7916 16.4052 10.869 16.5945 11.0103 16.7345L14.4704 20.1945C14.5997 20.3252 14.665 20.4959 14.665 20.6665C14.665 20.8372 14.5997 21.0079 14.4704 21.1385C14.2104 21.3985 13.7877 21.3985 13.5277 21.1385L11.9983 19.6092Z" fill="#FFE5FB"/>
</g>
</svg>
