<svg width="25" height="25" viewBox="0 0 25 25" fill="none" xmlns="http://www.w3.org/2000/svg">
<path d="M18.5 9.5H20.5C21.0304 9.5 21.5391 9.71071 21.9142 10.0858C22.2893 10.4609 22.5 10.9696 22.5 11.5V22.5L18.5 18.5H12.5C11.9696 18.5 11.4609 18.2893 11.0858 17.9142C10.7107 17.5391 10.5 17.0304 10.5 16.5V15.5M14.5 9.5C14.5 10.0304 14.2893 10.5391 13.9142 10.9142C13.5391 11.2893 13.0304 11.5 12.5 11.5H6.5L2.5 15.5V4.5C2.5 3.4 3.4 2.5 4.5 2.5H12.5C13.0304 2.5 13.5391 2.71071 13.9142 3.08579C14.2893 3.46086 14.5 3.96957 14.5 4.5V9.5Z" stroke="#62096C" stroke-width="2" stroke-linecap="round" stroke-linejoin="round"/>
</svg>
